<svg xmlns="http://www.w3.org/2000/svg" width="30" height="30" viewBox="0 0 30 30"><defs><style>.a{fill:rgba(255,57,41,0.2);}.b{fill:#ff3929;}</style></defs><g transform="translate(-5 -5)"><g transform="translate(5 5)"><path class="a" d="M15,30A15,15,0,1,0,0,15,15,15,0,0,0,15,30Z"/><path class="b" d="M2.589.444A1.517,1.517,0,0,0,.444,2.589L3.922,6.067.444,9.545A1.517,1.517,0,1,0,2.589,11.69L6.067,8.212,9.545,11.69A1.517,1.517,0,1,0,11.69,9.545L8.212,6.067,11.69,2.589A1.517,1.517,0,1,0,9.545.444L6.067,3.922Z" transform="translate(8.933 8.933)"/></g></g></svg>